<svg width="1600" height="900" viewBox="0 0 1600 900" fill="none" xmlns="http://www.w3.org/2000/svg" role="img" aria-labelledby="title desc">
  <title id="title">Ember background image generation pipeline</title>
  <desc id="desc">A dark editorial hero graphic showing Ember connecting Convex realtime state, Trigger.dev durable workers, GPT Image 2, and Cloudflare R2 storage.</desc>
  <defs>
    <radialGradient id="emberGlow" cx="0" cy="0" r="1" gradientUnits="userSpaceOnUse" gradientTransform="translate(1170 185) rotate(129.9) scale(719 949)">
      <stop stop-color="#FF8A3D" stop-opacity="0.9"/>
      <stop offset="0.35" stop-color="#FF4D2E" stop-opacity="0.35"/>
      <stop offset="1" stop-color="#070707" stop-opacity="0"/>
    </radialGradient>
    <linearGradient id="panel" x1="172" y1="95" x2="1428" y2="805" gradientUnits="userSpaceOnUse">
      <stop stop-color="#161616"/>
      <stop offset="1" stop-color="#080808"/>
    </linearGradient>
    <filter id="softShadow" x="0" y="0" width="1600" height="900" filterUnits="userSpaceOnUse" color-interpolation-filters="sRGB">
      <feDropShadow dx="0" dy="28" stdDeviation="42" flood-color="#000000" flood-opacity="0.55"/>
    </filter>
  </defs>
  <rect width="1600" height="900" fill="#050505"/>
  <rect width="1600" height="900" fill="url(#emberGlow)"/>
  <g opacity="0.18">
    <path d="M0 142H1600M0 284H1600M0 426H1600M0 568H1600M0 710H1600" stroke="#FFFFFF" stroke-width="1"/>
    <path d="M177 0V900M354 0V900M531 0V900M708 0V900M885 0V900M1062 0V900M1239 0V900M1416 0V900" stroke="#FFFFFF" stroke-width="1"/>
  </g>
  <g filter="url(#softShadow)">
    <rect x="116" y="82" width="1368" height="736" rx="44" fill="url(#panel)" stroke="#2D2D2D" stroke-width="2"/>
    <rect x="148" y="114" width="1304" height="672" rx="28" fill="#0C0C0C" stroke="#242424"/>
  </g>
  <text x="204" y="215" fill="#F6EFE7" font-family="Inter, ui-sans-serif, system-ui, sans-serif" font-size="92" font-weight="760" letter-spacing="-4">Ember</text>
  <text x="204" y="278" fill="#BEB4AA" font-family="Inter, ui-sans-serif, system-ui, sans-serif" font-size="29" font-weight="450">Production-grade background image generation starter kit</text>
  <text x="204" y="345" fill="#746D66" font-family="Inter, ui-sans-serif, system-ui, sans-serif" font-size="20" letter-spacing="3">CONVEX REALTIME · TRIGGER.DEV WORKERS · GPT IMAGE 2 · CLOUDFLARE R2</text>
  <g transform="translate(204 443)">
    <rect width="256" height="118" rx="24" fill="#151515" stroke="#333"/>
    <circle cx="52" cy="59" r="21" fill="#FF7A2F"/>
    <text x="88" y="53" fill="#F6EFE7" font-family="Inter, ui-sans-serif, system-ui, sans-serif" font-size="24" font-weight="700">Prompt</text>
    <text x="88" y="83" fill="#8D847C" font-family="Inter, ui-sans-serif, system-ui, sans-serif" font-size="17">received</text>
    <path d="M280 59H408" stroke="#FF7A2F" stroke-width="3" stroke-linecap="round" stroke-dasharray="10 12"/>
  </g>
  <g transform="translate(612 443)">
    <rect width="256" height="118" rx="24" fill="#151515" stroke="#333"/>
    <circle cx="52" cy="59" r="21" fill="#FFB15E"/>
    <text x="88" y="53" fill="#F6EFE7" font-family="Inter, ui-sans-serif, system-ui, sans-serif" font-size="24" font-weight="700">Generate</text>
    <text x="88" y="83" fill="#8D847C" font-family="Inter, ui-sans-serif, system-ui, sans-serif" font-size="17">durable retry</text>
    <path d="M280 59H408" stroke="#FF7A2F" stroke-width="3" stroke-linecap="round" stroke-dasharray="10 12"/>
  </g>
  <g transform="translate(1020 443)">
    <rect width="256" height="118" rx="24" fill="#151515" stroke="#333"/>
    <circle cx="52" cy="59" r="21" fill="#64D68A"/>
    <text x="88" y="53" fill="#F6EFE7" font-family="Inter, ui-sans-serif, system-ui, sans-serif" font-size="24" font-weight="700">Store</text>
    <text x="88" y="83" fill="#8D847C" font-family="Inter, ui-sans-serif, system-ui, sans-serif" font-size="17">R2 result</text>
  </g>
  <g transform="translate(204 650)">
    <rect width="1072" height="74" rx="22" fill="#111" stroke="#292929"/>
    <rect x="22" y="22" width="220" height="30" rx="15" fill="#FF7A2F"/>
    <rect x="266" y="22" width="178" height="30" rx="15" fill="#7A4C31"/>
    <rect x="468" y="22" width="260" height="30" rx="15" fill="#2B2B2B"/>
    <rect x="752" y="22" width="130" height="30" rx="15" fill="#2B2B2B"/>
    <text x="916" y="46" fill="#BEB4AA" font-family="Inter, ui-sans-serif, system-ui, sans-serif" font-size="18">live job timeline</text>
  </g>
  <path d="M1249 210C1321 249 1352 325 1324 391C1296 457 1219 490 1147 452C1075 413 1044 337 1072 271C1100 205 1177 172 1249 210Z" fill="#FF7A2F" opacity="0.92"/>
  <path d="M1201 257C1244 280 1262 326 1245 365C1228 404 1182 424 1139 401C1096 378 1078 332 1095 293C1112 254 1158 234 1201 257Z" fill="#080808" opacity="0.72"/>
</svg>
